# xmcd
#
# Track frame offsets: 
#        150
#        18264
#        37594
#        50671
#        67610
#        87941
#        104443
#        121712
#        145895
#        165721
#        186915
#        207320
#        228869
#
# Disc length: 3317 seconds
#
# Revision: 8
# Processed by: cddbd v1.5.2PL0 Copyright (c) Steve Scherf et al.
# Submitted via: ExactAudioCopy v0.99pb4
#
DISCID=9f0cf30d
DTITLE=Chip Taylor and Carrie Rodriguez - The Trouble with Humans
DYEAR=2003
DGENRE=Country
TTITLE0=Don't Speak in English
TTITLE1=Memphis, Texas
TTITLE2=All the Rain
TTITLE3=Curves and Things
TTITLE4=The Trouble with Humans
TTITLE5=Oh Ireland
TTITLE6=Fall
TTITLE7=Laredo
TTITLE8=Dirty Little Texas Story
TTITLE9=Confessions
TTITLE10=I Need a Wall
TTITLE11=We Come up Shining
TTITLE12=Find Me a Killer
EXTD=
EXTT0=
EXTT1=
EXTT2=
EXTT3=
EXTT4=
EXTT5=
EXTT6=
EXTT7=
EXTT8=
EXTT9=
EXTT10=
EXTT11=
EXTT12=
PLAYORDER=
